<svg xmlns="http://www.w3.org/2000/svg" width="150mm" height="100mm" viewBox="0 0 150 100">
 <style>
 path { stroke: black; stroke-width: 0.1; fill: none }
 </style>
 <!--
 <path transform="translate(50 20)" d=" 0 -1 l 20 0 q 5 0 7 -5 q 5 5 15 6 q -10 1 -15 6 q -2 -5 -7 -5 l -20 0 l -16 0 a 10 10 0 1 1 0 -2 l 16 0"/>
 <circle transform="translate(50 20)" r="6"/>
 <circle transform="translate(50 20)" r="3" fill="white"/>
 <path style="stroke-width: 0.1; stroke: red" transform="translate(50 20)" d="m -37 0 l 89 0"/>
 -->
 <path d="M 0 -3 C 1.66 -3 3 -1.66 3 0 C 3 1.66 1.66 3 0 3 C -1.66 3 -3 1.66 -3 0 C -3 -1.66 -1.66 -3 0 -3 L 0 -3 M 27.33 -4.34 Q 30.81 -1.39 36.17 -0.00 L 36.17 -0.00 Q 30.81 1.39 27.33 4.34 Q 26.33 2.51 24.83 1.44 Q 22.82 0.00 20 0 Q 22.82 -0.00 24.83 -1.44 Q 26.33 -2.51 27.33 -4.34 L 27.33 -4.34 M 27.33 4.34 Q 27.33 4.34 27.33 4.34 L 27.33 4.34 Q 27.33 4.34 27.33 4.34 L 27.33 4.34 M -25.94 -9.00 C -21.35 -9.00 -17.46 -5.52 -17.00 -0.90 L -16.91 -0.00 L -16.90 -0.00 L -17.00 0.90 C -17.46 5.52 -21.35 9.00 -25.94 9.00 C -26.10 9.00 -26.25 9.00 -26.40 8.99 C -31.19 8.75 -34.95 4.80 -34.95 -0.00 C -34.95 -4.80 -31.19 -8.75 -26.40 -8.99 C -26.25 -9.00 -26.10 -9.00 -25.94 -9.00 L -25.94 -9.00 M -25.94 -11.00 C -26.13 -11.00 -26.31 -11.00 -26.50 -10.99 C -32.35 -10.69 -36.95 -5.86 -36.95 -0.00 C -36.95 5.86 -32.35 10.69 -26.50 10.99 C -26.31 11.00 -26.13 11.00 -25.94 11.00 C -20.63 11.00 -16.09 7.19 -15.13 2 L -5.66 2 C -4.83 4.33 -2.61 6 0 6 C 2.61 6 4.83 4.33 5.66 2 L 20 2 Q 20.00 2.00 20.01 2.00 Q 22.18 2.00 23.67 3.06 Q 25.18 4.14 26.07 6.37 L 26.63 7.78 L 27.71 6.71 Q 32.45 1.96 42.10 1.00 L 52.05 0 L 42.10 -1.00 Q 32.45 -1.96 27.71 -6.71 L 26.63 -7.78 L 26.07 -6.37 Q 25.18 -4.14 23.67 -3.06 Q 22.18 -2.00 20.01 -2.00 Q 20.00 -2.00 20 -2 L 5.66 -2 C 4.83 -4.33 2.61 -6 0 -6 C -2.61 -6 -4.83 -4.33 -5.66 -2 L -15.13 -2 C -16.09 -7.19 -20.63 -11.00 -25.94 -11.00 L -25.94 -11.00" style="transform:translate(11mm,4mm) rotate(0deg)"/>     <!--6mm-->
 <path d="M 0 -1.50 C 0.83 -1.50 1.50 -0.83 1.50 0 C 1.50 0.83 0.83 1.50 0 1.50 C -0.83 1.50 -1.50 0.83 -1.50 0 C -1.50 -0.83 -0.83 -1.50 0 -1.50 L 0 -1.50 M 27.33 -4.34 Q 30.81 -1.39 36.17 -0.00 L 36.17 -0.00 Q 30.81 1.39 27.33 4.34 Q 26.33 2.51 24.83 1.44 Q 22.82 0.00 20 0 Q 22.82 -0.00 24.83 -1.44 Q 26.33 -2.51 27.33 -4.34 L 27.33 -4.34 M 27.33 4.34 Q 27.33 4.34 27.33 4.34 L 27.33 4.34 Q 27.33 4.34 27.33 4.34 L 27.33 4.34 M -25.94 -9.00 C -21.35 -9.00 -17.46 -5.52 -17.00 -0.90 L -16.91 -0.00 L -16.90 -0.00 L -17.00 0.90 C -17.46 5.52 -21.35 9.00 -25.94 9.00 C -26.10 9.00 -26.25 9.00 -26.40 8.99 C -31.19 8.75 -34.95 4.80 -34.95 -0.00 C -34.95 -4.80 -31.19 -8.75 -26.40 -8.99 C -26.25 -9.00 -26.10 -9.00 -25.94 -9.00 L -25.94 -9.00 M -25.94 -11.00 C -26.13 -11.00 -26.31 -11.00 -26.50 -10.99 C -32.35 -10.69 -36.95 -5.86 -36.95 -0.00 C -36.95 5.86 -32.35 10.69 -26.50 10.99 C -26.31 11.00 -26.13 11.00 -25.94 11.00 C -20.63 11.00 -16.09 7.19 -15.13 2 L -5.66 2 C -4.83 4.33 -2.61 6 0 6 C 2.61 6 4.83 4.33 5.66 2 L 20 2 Q 20.00 2.00 20.01 2.00 Q 22.18 2.00 23.67 3.06 Q 25.18 4.14 26.07 6.37 L 26.63 7.78 L 27.71 6.71 Q 32.45 1.96 42.10 1.00 L 52.05 0 L 42.10 -1.00 Q 32.45 -1.96 27.71 -6.71 L 26.63 -7.78 L 26.07 -6.37 Q 25.18 -4.14 23.67 -3.06 Q 22.18 -2.00 20.01 -2.00 Q 20.00 -2.00 20 -2 L 5.66 -2 C 4.83 -4.33 2.61 -6 0 -6 C -2.61 -6 -4.83 -4.33 -5.66 -2 L -15.13 -2 C -16.09 -7.19 -20.63 -11.00 -25.94 -11.00 L -25.94 -11.00" style="transform:translate(15mm,9mm) rotate(180deg)"/> <!-- 3mm -->
 <path d="M 0 -2.50 C 1.38 -2.50 2.50 -1.38 2.50 0 C 2.50 1.38 1.38 2.50 0 2.50 C -1.38 2.50 -2.50 1.38 -2.50 0 C -2.50 -1.38 -1.38 -2.50 0 -2.50 L 0 -2.50 M 27.33 -4.34 Q 30.81 -1.39 36.17 -0.00 L 36.17 -0.00 Q 30.81 1.39 27.33 4.34 Q 26.33 2.51 24.83 1.44 Q 22.82 0.00 20 0 Q 22.82 -0.00 24.83 -1.44 Q 26.33 -2.51 27.33 -4.34 L 27.33 -4.34 M 27.33 4.34 Q 27.33 4.34 27.33 4.34 L 27.33 4.34 Q 27.33 4.34 27.33 4.34 L 27.33 4.34 M -25.94 -9.00 C -21.35 -9.00 -17.46 -5.52 -17.00 -0.90 L -16.91 -0.00 L -16.90 -0.00 L -17.00 0.90 C -17.46 5.52 -21.35 9.00 -25.94 9.00 C -26.10 9.00 -26.25 9.00 -26.40 8.99 C -31.19 8.75 -34.95 4.80 -34.95 -0.00 C -34.95 -4.80 -31.19 -8.75 -26.40 -8.99 C -26.25 -9.00 -26.10 -9.00 -25.94 -9.00 L -25.94 -9.00 M -25.94 -11.00 C -26.13 -11.00 -26.31 -11.00 -26.50 -10.99 C -32.35 -10.69 -36.95 -5.86 -36.95 -0.00 C -36.95 5.86 -32.35 10.69 -26.50 10.99 C -26.31 11.00 -26.13 11.00 -25.94 11.00 C -20.63 11.00 -16.09 7.19 -15.13 2 L -5.66 2 C -4.83 4.33 -2.61 6 0 6 C 2.61 6 4.83 4.33 5.66 2 L 20 2 Q 20.00 2.00 20.01 2.00 Q 22.18 2.00 23.67 3.06 Q 25.18 4.14 26.07 6.37 L 26.63 7.78 L 27.71 6.71 Q 32.45 1.96 42.10 1.00 L 52.05 0 L 42.10 -1.00 Q 32.45 -1.96 27.71 -6.71 L 26.63 -7.78 L 26.07 -6.37 Q 25.18 -4.14 23.67 -3.06 Q 22.18 -2.00 20.01 -2.00 Q 20.00 -2.00 20 -2 L 5.66 -2 C 4.83 -4.33 2.61 -6 0 -6 C -2.61 -6 -4.83 -4.33 -5.66 -2 L -15.13 -2 C -16.09 -7.19 -20.63 -11.00 -25.94 -11.00 L -25.94 -11.00" style="transform:translate(11mm,14mm) rotate(0deg)"/>
 <path d="M 0 -2 C 1.10 -2 2 -1.10 2 0 C 2 1.10 1.10 2 0 2 C -1.10 2 -2 1.10 -2 0 C -2 -1.10 -1.10 -2 0 -2 L 0 -2 M 27.33 -4.34 Q 30.81 -1.39 36.17 -0.00 L 36.17 -0.00 Q 30.81 1.39 27.33 4.34 Q 26.33 2.51 24.83 1.44 Q 22.82 0.00 20 0 Q 22.82 -0.00 24.83 -1.44 Q 26.33 -2.51 27.33 -4.34 L 27.33 -4.34 M 27.33 4.34 Q 27.33 4.34 27.33 4.34 L 27.33 4.34 Q 27.33 4.34 27.33 4.34 L 27.33 4.34 M -25.94 -9.00 C -21.35 -9.00 -17.46 -5.52 -17.00 -0.90 L -16.91 -0.00 L -16.90 -0.00 L -17.00 0.90 C -17.46 5.52 -21.35 9.00 -25.94 9.00 C -26.10 9.00 -26.25 9.00 -26.40 8.99 C -31.19 8.75 -34.95 4.80 -34.95 -0.00 C -34.95 -4.80 -31.19 -8.75 -26.40 -8.99 C -26.25 -9.00 -26.10 -9.00 -25.94 -9.00 L -25.94 -9.00 M -25.94 -11.00 C -26.13 -11.00 -26.31 -11.00 -26.50 -10.99 C -32.35 -10.69 -36.95 -5.86 -36.95 -0.00 C -36.95 5.86 -32.35 10.69 -26.50 10.99 C -26.31 11.00 -26.13 11.00 -25.94 11.00 C -20.63 11.00 -16.09 7.19 -15.13 2 L -5.66 2 C -4.83 4.33 -2.61 6 0 6 C 2.61 6 4.83 4.33 5.66 2 L 20 2 Q 20.00 2.00 20.01 2.00 Q 22.18 2.00 23.67 3.06 Q 25.18 4.14 26.07 6.37 L 26.63 7.78 L 27.71 6.71 Q 32.45 1.96 42.10 1.00 L 52.05 0 L 42.10 -1.00 Q 32.45 -1.96 27.71 -6.71 L 26.63 -7.78 L 26.07 -6.37 Q 25.18 -4.14 23.67 -3.06 Q 22.18 -2.00 20.01 -2.00 Q 20.00 -2.00 20 -2 L 5.66 -2 C 4.83 -4.33 2.61 -6 0 -6 C -2.61 -6 -4.83 -4.33 -5.66 -2 L -15.13 -2 C -16.09 -7.19 -20.63 -11.00 -25.94 -11.00 L -25.94 -11.00" style="transform:translate(15mm,19mm) rotate(180deg)"/>
 <path d="" style="transform:translate(35mm,9mm) rotate(180deg)"/>
</svg>
